<?xml version="1.0" ?><!DOCTYPE svg  PUBLIC '-//W3C//DTD SVG 1.1//EN'  'http://www.w3.org/Graphics/SVG/1.1/DTD/svg11.dtd'><svg xmlns="http://www.w3.org/2000/svg" xmlns:xlink="http://www.w3.org/1999/xlink" version="1.1" id="Layer_1" width="512px" height="512px" viewBox="0 0 512 512" enable-background="new 0 0 512 512" xml:space="preserve"><path d="M392.599,13.5H119.401C61.007,13.5,13.5,61.007,13.5,119.401v273.198c0,58.394,47.507,105.901,105.901,105.901h273.198  c58.394,0,105.901-47.507,105.901-105.901V119.401C498.5,61.007,450.993,13.5,392.599,13.5z M473.5,392.599  c0,44.609-36.292,80.901-80.901,80.901H119.401c-44.609,0-80.901-36.292-80.901-80.901V119.401  c0-44.609,36.292-80.901,80.901-80.901h273.198c44.609,0,80.901,36.292,80.901,80.901V392.599z M290.426,233.067l94.35-117.595  c4.32-5.385,3.457-13.252-1.927-17.573c-5.385-4.319-13.252-3.458-17.573,1.928L274.4,213.092L183.524,99.827  c-2.373-2.957-5.959-4.678-9.75-4.678h-73.601c-4.808,0-9.19,2.758-11.27,7.093c-2.08,4.335-1.489,9.479,1.52,13.229l131.15,163.462  l-94.35,117.595c-4.32,5.385-3.457,13.252,1.927,17.573c2.308,1.851,5.07,2.75,7.815,2.75c3.66,0,7.289-1.601,9.758-4.678  L237.6,298.908l90.875,113.265c2.373,2.957,5.959,4.678,9.75,4.678h73.601c0.008,0,0.014,0,0.02,0c6.903,0,12.5-5.596,12.5-12.5  c0-3.187-1.192-6.094-3.155-8.302L290.426,233.067z M344.223,391.851L126.229,120.149h41.548l217.994,271.702H344.223z"/></svg>